<svg xmlns="http://www.w3.org/2000/svg" width="41.125" height="47" viewBox="0 0 41.125 47">
  <path id="Icon_awesome-calendar-day" data-name="Icon awesome-calendar-day" d="M0,42.594A4.407,4.407,0,0,0,4.406,47H36.719a4.407,4.407,0,0,0,4.406-4.406V17.625H0ZM5.875,24.969A1.473,1.473,0,0,1,7.344,23.5h8.812a1.473,1.473,0,0,1,1.469,1.469v8.812a1.473,1.473,0,0,1-1.469,1.469H7.344a1.473,1.473,0,0,1-1.469-1.469ZM36.719,5.875H32.313V1.469A1.473,1.473,0,0,0,30.844,0H27.906a1.473,1.473,0,0,0-1.469,1.469V5.875H14.688V1.469A1.473,1.473,0,0,0,13.219,0H10.281A1.473,1.473,0,0,0,8.813,1.469V5.875H4.406A4.407,4.407,0,0,0,0,10.281v4.406H41.125V10.281A4.407,4.407,0,0,0,36.719,5.875Z" fill="#fff"/>
</svg>
