<svg xmlns="http://www.w3.org/2000/svg" width="37.5" height="50" viewBox="0 0 37.5 50">
  <path id="Icon_awesome-clipboard-list" data-name="Icon awesome-clipboard-list" d="M32.813,6.25H25a6.25,6.25,0,1,0-12.5,0H4.688A4.689,4.689,0,0,0,0,10.938V45.313A4.689,4.689,0,0,0,4.688,50H32.813A4.689,4.689,0,0,0,37.5,45.313V10.938A4.689,4.689,0,0,0,32.813,6.25ZM9.375,41.406a2.344,2.344,0,1,1,2.344-2.344A2.338,2.338,0,0,1,9.375,41.406Zm0-9.375a2.344,2.344,0,1,1,2.344-2.344A2.338,2.338,0,0,1,9.375,32.031Zm0-9.375a2.344,2.344,0,1,1,2.344-2.344A2.338,2.338,0,0,1,9.375,22.656ZM18.75,3.906A2.344,2.344,0,1,1,16.406,6.25,2.338,2.338,0,0,1,18.75,3.906Zm12.5,35.938a.784.784,0,0,1-.781.781H16.406a.784.784,0,0,1-.781-.781V38.281a.784.784,0,0,1,.781-.781H30.469a.784.784,0,0,1,.781.781Zm0-9.375a.784.784,0,0,1-.781.781H16.406a.784.784,0,0,1-.781-.781V28.906a.784.784,0,0,1,.781-.781H30.469a.784.784,0,0,1,.781.781Zm0-9.375a.784.784,0,0,1-.781.781H16.406a.784.784,0,0,1-.781-.781V19.531a.784.784,0,0,1,.781-.781H30.469a.784.784,0,0,1,.781.781Z" fill="#fff"/>
</svg>
