<svg xmlns="http://www.w3.org/2000/svg" width="44.542" height="59.39" viewBox="0 0 44.542 59.39">
  <g id="archive_-_cópia" data-name="archive - cópia" transform="translate(-46.704)">
    <path id="Caminho_304" data-name="Caminho 304" d="M286.894,333.6h2.121v2.121h-2.121Z" transform="translate(-202.011 -280.57)" fill="#fff"/>
    <path id="Caminho_305" data-name="Caminho 305" d="M108.389,60.047h-4.242v1.061a1.06,1.06,0,0,1-1.061,1.061H79.755a1.06,1.06,0,0,1-1.061-1.061V60.047H74.453a1.062,1.062,0,0,0-1.061,1.061V105.65h31.816v-3.182a1.06,1.06,0,0,1,1.061-1.061h3.182v-40.3A1.062,1.062,0,0,0,108.389,60.047ZM80.816,71.091c0-3.7,3.952-4.681,6.041-4.681a7.094,7.094,0,0,1,4.565,1.7,7.1,7.1,0,0,1,4.565-1.7c2.089,0,6.041.979,6.041,4.681v1.022a10.836,10.836,0,0,1-1.794,6.058c-.083.122-.166.244-.254.365a2.225,2.225,0,0,0-.353,1.943,15.754,15.754,0,0,1,.743,4.29c.02.409.14,4.475-1.962,6.625a1.573,1.573,0,0,1-2.629-.657c-1.209-4.174-3.081-7.322-4.355-7.322s-3.146,3.149-4.355,7.323a1.574,1.574,0,0,1-2.629.656c-2.1-2.15-1.981-6.216-1.961-6.673a15.714,15.714,0,0,1,.742-4.243,2.232,2.232,0,0,0-.357-1.948c-.085-.114-.169-.237-.25-.357a10.836,10.836,0,0,1-1.8-6.059V71.092Zm0,23.953H95.663a1.061,1.061,0,1,1,0,2.121H80.816a1.061,1.061,0,1,1,0-2.121ZM84,101.408H80.816a1.061,1.061,0,0,1,0-2.121H84a1.061,1.061,0,0,1,0,2.121Zm18.029,0H88.239a1.061,1.061,0,0,1,0-2.121h13.787a1.061,1.061,0,0,1,0,2.121Zm0-4.242H99.905a1.061,1.061,0,0,1,0-2.121h2.121a1.061,1.061,0,0,1,0,2.121Z" transform="translate(-22.446 -50.502)" fill="#fff"/>
    <path id="Caminho_306" data-name="Caminho 306" d="M88.065,33.36H81.7v2.121h4.242a3.185,3.185,0,0,1,3.182,3.182v45.6a1.06,1.06,0,0,1-1.061,1.061H49.886a1.06,1.06,0,0,1-1.061-1.061v-45.6a3.186,3.186,0,0,1,3.182-3.182h4.242V33.36H49.886A3.185,3.185,0,0,0,46.7,36.542V84.265a3.185,3.185,0,0,0,3.182,3.182H88.065a3.186,3.186,0,0,0,3.182-3.182V36.541a3.185,3.185,0,0,0-3.181-3.181Z" transform="translate(0 -28.057)" fill="#fff"/>
    <path id="Caminho_307" data-name="Caminho 307" d="M121.719,3.182A1.625,1.625,0,0,0,120.1,4.8V9.545h21.211V4.8a1.625,1.625,0,0,0-1.623-1.623H136.97a4.645,4.645,0,0,1-3.725-1.891,3.151,3.151,0,0,0-5.086,0,4.642,4.642,0,0,1-3.725,1.891Zm5.8,0a1.06,1.06,0,0,1,1.061-1.061h4.242a1.06,1.06,0,0,1,1.061,1.061V7.424a1.06,1.06,0,0,1-1.061,1.061H128.58a1.06,1.06,0,0,1-1.061-1.061Z" transform="translate(-61.726 0)" fill="#fff"/>
    <path id="Caminho_308" data-name="Caminho 308" d="M135.09,122.164a4.339,4.339,0,0,1,.68,3.8,13.948,13.948,0,0,0-.658,3.693,10.068,10.068,0,0,0,.77,4.287c.971-2.965,3.014-7.761,6.055-7.761s5.084,4.8,6.056,7.763a9.9,9.9,0,0,0,.77-4.241,13.929,13.929,0,0,0-.659-3.739,4.335,4.335,0,0,1,.677-3.791c.074-.1.141-.2.206-.295A8.72,8.72,0,0,0,150.422,117v-1.022c0-2.5-3.734-2.559-3.92-2.56a5.141,5.141,0,0,0-3.729,1.714c-.243.327-1.952,2.527-4.016,2.527a1.061,1.061,0,1,1,0-2.121,3.011,3.011,0,0,0,1.719-1.005,4.95,4.95,0,0,0-3.1-1.116c-.157,0-3.92.049-3.92,2.56V117a8.719,8.719,0,0,0,1.436,4.877c.061.1.128.193.2.289Z" transform="translate(-72.962 -95.388)" fill="#fff"/>
    <path id="Caminho_309" data-name="Caminho 309" d="M180.143,26.688h2.121v2.121h-2.121Z" transform="translate(-112.228 -22.446)" fill="#fff"/>
  </g>
</svg>
