<svg xmlns="http://www.w3.org/2000/svg" width="48.799" height="53.819" viewBox="0 0 48.799 53.819">
  <g id="Grupo_237" data-name="Grupo 237" transform="translate(-636.252 -824.797)">
    <path id="Caminho_315" data-name="Caminho 315" d="M681.385,921.407H639.918a3.632,3.632,0,0,1-3.658-4.047c.468-7.811,4.855-14.668,16.408-15.9l7.983,7.038,7.983-7.038c11.553,1.237,15.94,8.094,16.408,15.9A3.632,3.632,0,0,1,681.385,921.407Z" transform="translate(0 -42.792)" fill="#fff"/>
    <circle id="Elipse_34" data-name="Elipse 34" cx="12.37" cy="12.37" r="12.37" transform="translate(648.18 829.525)" fill="#fff"/>
    <path id="Caminho_317" data-name="Caminho 317" d="M8.223,0A8.223,8.223,0,1,1,0,8.223,8.223,8.223,0,0,1,8.223,0Z" transform="translate(652.327 833.673)" fill="#227ae9"/>
    <path id="Caminho_316" data-name="Caminho 316" d="M687.99,830.8v11.1H663.25V830.8a1.454,1.454,0,0,1,.9-1.336l10.879-4.545a1.527,1.527,0,0,1,1.175,0l10.879,4.545A1.454,1.454,0,0,1,687.99,830.8Z" transform="translate(-15.071)" fill="#fff"/>
    <g id="Grupo_235" data-name="Grupo 235" transform="translate(656.527 829.354)">
      <rect id="Ret창ngulo_296" data-name="Ret창ngulo 296" width="2.621" height="7.994" transform="translate(2.687 0)" fill="#227ae9"/>
      <rect id="Ret창ngulo_297" data-name="Ret창ngulo 297" width="2.621" height="7.994" transform="translate(7.994 2.687) rotate(90)" fill="#227ae9"/>
    </g>
  </g>
</svg>
